<svg height="20" viewBox="0 0 20 20" width="20" xmlns="http://www.w3.org/2000/svg"><path d="m18.1818182 0c1.0041541 0 1.8181818.81402773 1.8181818 1.81818182v16.36363638c0 1.0041541-.8140277 1.8181818-1.8181818 1.8181818h-16.36363638c-1.00415409 0-1.81818182-.8140277-1.81818182-1.8181818v-16.36363638c0-1.00415409.81402773-1.81818182 1.81818182-1.81818182zm-7.8842243 4.91062796c-.37655774 0-.68181813.3052604-.68181813.68181818l-.00077577 3.70655386-3.70590909.000131c-.34232526 0-.62572706.25228132-.67442552.58106409l-.00739266.10075409c0 .37655782.3052604.68181822.68181818.68181822l3.70590909-.0007674.00077577 3.7074522c0 .3423253.25228132.6257271.58106413.6744255l.100754.0073927c.3765578 0 .6818182-.3052604.6818182-.6818182l-.0004121-3.7074522 3.707097.0007674c.3423252 0 .625727-.2522814.6744255-.5810641l.0073927-.10075412c0-.37655778-.3052604-.68181818-.6818182-.68181818l-3.707097-.000131.0004121-3.70655386c0-.34232526-.2522813-.62572705-.5810641-.67442552z" fill="#555"/></svg>